<svg width="40" height="33" viewBox="0 0 40 33" fill="none" xmlns="http://www.w3.org/2000/svg">
<path id="Vector" d="M40 3.82493C38.4995 4.48261 36.912 4.9159 35.2875 5.11111C36.9947 4.10266 38.2786 2.50056 38.8983 0.605275C37.2842 1.55738 35.5213 2.22542 33.685 2.58078C32.9117 1.76328 31.9818 1.11294 30.9516 0.669286C29.9214 0.22563 28.8126 -0.00207414 27.6925 1.42358e-05C23.1575 1.42358e-05 19.4875 3.64839 19.4875 8.14582C19.4843 8.7714 19.5553 9.39511 19.6992 10.0036C16.4472 9.84985 13.2629 9.01301 10.35 7.54666C7.43703 6.08031 4.85957 4.01673 2.7825 1.48795C2.05381 2.72715 1.66844 4.14105 1.66667 5.58187C1.66667 8.40642 3.1275 10.9031 5.33333 12.3658C4.02644 12.3346 2.74633 11.9856 1.60167 11.3487V11.4495C1.60167 15.4006 4.435 18.6875 8.185 19.4356C7.47982 19.6253 6.75314 19.7213 6.02333 19.7214C5.50548 19.7224 4.98881 19.6717 4.48083 19.5701C5.52333 22.8066 8.5575 25.1604 12.1517 25.2276C9.23115 27.4981 5.64552 28.7253 1.95833 28.7163C1.30385 28.7153 0.649971 28.676 0 28.5986C3.75098 31.0148 8.11121 32.2928 12.5617 32.2806C27.675 32.2806 35.9317 19.8644 35.9317 9.09575C35.9317 8.74268 35.9225 8.38961 35.9058 8.04494C37.5084 6.895 38.8948 5.46595 40 3.82493Z" fill="white"/>
</svg>
